<svg width="135" height="221" viewBox="0 0 135 221" fill="none" xmlns="http://www.w3.org/2000/svg">
<g filter="url(#filter0_d_160_54)">
<rect width="75" height="75" transform="matrix(0.875606 0.483027 -0.875606 0.483027 67.4636 0)" fill="#F2BD1D"/>
</g>
<g filter="url(#filter1_d_160_54)">
<rect width="75" height="75" transform="matrix(0.875606 0.483027 -0.875606 0.483027 67.4636 72.4541)" fill="#D90479"/>
</g>
<g filter="url(#filter2_d_160_54)">
<rect width="75" height="75" transform="matrix(0.875606 0.483027 -0.875606 0.483027 67.4636 144.908)" fill="#1DC1F2"/>
</g>
<path d="M66.7803 169L67.0218 168.562L66.7803 168.429L66.5388 168.562L66.7803 169ZM110.561 193.151L110.802 193.589L111.596 193.151L110.802 192.714L110.561 193.151ZM66.7803 217.303L66.5388 217.74L66.7803 217.874L67.0218 217.74L66.7803 217.303ZM23 193.151L22.7585 192.714L21.9649 193.151L22.7585 193.589L23 193.151ZM66.6431 96.9243L66.8846 96.4865L66.6431 96.3533L66.4016 96.4865L66.6431 96.9243ZM110.561 121.151L110.802 121.589L111.596 121.151L110.802 120.714L110.561 121.151ZM66.9175 145.227L66.676 145.665L66.9175 145.798L67.159 145.665L66.9175 145.227ZM23 121L22.7585 120.562L21.9649 121L22.7585 121.438L23 121ZM66.5388 169.438L110.319 193.589L110.802 192.714L67.0218 168.562L66.5388 169.438ZM110.319 192.714L66.5388 216.865L67.0218 217.74L110.802 193.589L110.319 192.714ZM67.0218 216.865L23.2415 192.714L22.7585 193.589L66.5388 217.74L67.0218 216.865ZM23.2415 193.589L67.0218 169.438L66.5388 168.562L22.7585 192.714L23.2415 193.589ZM66 144L67 217L67.9999 216.986L66.9999 143.986L66 144ZM23 121V193H24V121H23ZM66.4016 97.3621L110.319 121.589L110.802 120.714L66.8846 96.4865L66.4016 97.3621ZM110.319 120.714L66.676 144.789L67.159 145.665L110.802 121.589L110.319 120.714ZM67.159 144.789L23.2415 120.562L22.7585 121.438L66.676 145.665L67.159 144.789ZM23.2415 121.438L66.8846 97.3621L66.4016 96.4865L22.7585 120.562L23.2415 121.438ZM109 121V193H110V121H109Z" fill="#FCFCFC"/>
<defs>
<filter id="filter0_d_160_54" x="0.475601" y="0" width="133.976" height="75.4187" filterUnits="userSpaceOnUse" color-interpolation-filters="sRGB">
<feFlood flood-opacity="0" result="BackgroundImageFix"/>
<feColorMatrix in="SourceAlpha" type="matrix" values="0 0 0 0 0 0 0 0 0 0 0 0 0 0 0 0 0 0 127 0" result="hardAlpha"/>
<feOffset dy="1.64702"/>
<feGaussianBlur stdDeviation="0.658806"/>
<feComposite in2="hardAlpha" operator="out"/>
<feColorMatrix type="matrix" values="0 0 0 0 0 0 0 0 0 0 0 0 0 0 0 0 0 0 0.33 0"/>
<feBlend mode="normal" in2="BackgroundImageFix" result="effect1_dropShadow_160_54"/>
<feBlend mode="normal" in="SourceGraphic" in2="effect1_dropShadow_160_54" result="shape"/>
</filter>
<filter id="filter1_d_160_54" x="0.475601" y="72.4541" width="133.976" height="75.4187" filterUnits="userSpaceOnUse" color-interpolation-filters="sRGB">
<feFlood flood-opacity="0" result="BackgroundImageFix"/>
<feColorMatrix in="SourceAlpha" type="matrix" values="0 0 0 0 0 0 0 0 0 0 0 0 0 0 0 0 0 0 127 0" result="hardAlpha"/>
<feOffset dy="1.64702"/>
<feGaussianBlur stdDeviation="0.658806"/>
<feComposite in2="hardAlpha" operator="out"/>
<feColorMatrix type="matrix" values="0 0 0 0 0 0 0 0 0 0 0 0 0 0 0 0 0 0 0.33 0"/>
<feBlend mode="normal" in2="BackgroundImageFix" result="effect1_dropShadow_160_54"/>
<feBlend mode="normal" in="SourceGraphic" in2="effect1_dropShadow_160_54" result="shape"/>
</filter>
<filter id="filter2_d_160_54" x="0.475601" y="144.908" width="133.976" height="75.4187" filterUnits="userSpaceOnUse" color-interpolation-filters="sRGB">
<feFlood flood-opacity="0" result="BackgroundImageFix"/>
<feColorMatrix in="SourceAlpha" type="matrix" values="0 0 0 0 0 0 0 0 0 0 0 0 0 0 0 0 0 0 127 0" result="hardAlpha"/>
<feOffset dy="1.64702"/>
<feGaussianBlur stdDeviation="0.658806"/>
<feComposite in2="hardAlpha" operator="out"/>
<feColorMatrix type="matrix" values="0 0 0 0 0 0 0 0 0 0 0 0 0 0 0 0 0 0 0.33 0"/>
<feBlend mode="normal" in2="BackgroundImageFix" result="effect1_dropShadow_160_54"/>
<feBlend mode="normal" in="SourceGraphic" in2="effect1_dropShadow_160_54" result="shape"/>
</filter>
</defs>
</svg>
